<?xml version="1.0" encoding="UTF-8" standalone="no"?>
<!-- Created with Inkscape (http://www.inkscape.org/) -->

<svg
   xmlns:osb="http://www.openswatchbook.org/uri/2009/osb"
   xmlns:dc="http://purl.org/dc/elements/1.1/"
   xmlns:cc="http://creativecommons.org/ns#"
   xmlns:rdf="http://www.w3.org/1999/02/22-rdf-syntax-ns#"
   xmlns:svg="http://www.w3.org/2000/svg"
   xmlns="http://www.w3.org/2000/svg"
   xmlns:sodipodi="http://sodipodi.sourceforge.net/DTD/sodipodi-0.dtd"
   xmlns:inkscape="http://www.inkscape.org/namespaces/inkscape"
   width="209.77406mm"
   height="209.77748mm"
   viewBox="0 0 209.77407 209.77748"
   version="1.1"
   id="svg8"
   inkscape:version="0.92.5 (2060ec1f9f, 2020-04-08)"
   sodipodi:docname="Logo letters 2.svg">
  <defs
     id="defs2">
    <linearGradient
       id="linearGradient2361"
       osb:paint="solid">
      <stop
         style="stop-color:#000000;stop-opacity:1;"
         offset="0"
         id="stop2359" />
    </linearGradient>
  </defs>
  <sodipodi:namedview
     id="base"
     pagecolor="#ffffff"
     bordercolor="#666666"
     borderopacity="1.0"
     inkscape:pageopacity="0.0"
     inkscape:pageshadow="2"
     inkscape:zoom="0.5"
     inkscape:cx="544.33753"
     inkscape:cy="419.06952"
     inkscape:document-units="mm"
     inkscape:current-layer="svg8"
     showgrid="false"
     showguides="true"
     inkscape:guide-bbox="true"
     inkscape:window-width="1280"
     inkscape:window-height="920"
     inkscape:window-x="-8"
     inkscape:window-y="-8"
     inkscape:window-maximized="1"
     fit-margin-top="0"
     fit-margin-left="0"
     fit-margin-right="0"
     fit-margin-bottom="0"
     inkscape:snap-to-guides="true">
    <inkscape:grid
       type="xygrid"
       id="grid815"
       originx="-0.14236424"
       originy="-87.106281" />
    <sodipodi:guide
       position="183.2862,149.99121"
       orientation="0,1"
       id="guide897"
       inkscape:locked="false" />
    <sodipodi:guide
       position="59.786273,170.51323"
       orientation="1,0"
       id="guide899"
       inkscape:locked="false" />
    <sodipodi:guide
       position="59.783223,159.32619"
       orientation="0,1"
       id="guide901"
       inkscape:locked="false" />
    <sodipodi:guide
       position="50.451284,59.786264"
       orientation="1,0"
       id="guide903"
       inkscape:locked="false" />
    <sodipodi:guide
       position="209.76988,210.49972"
       orientation="1,0"
       id="guide1230"
       inkscape:locked="false" />
    <sodipodi:guide
       position="50.451284,209.77328"
       orientation="0,1"
       id="guide1232"
       inkscape:locked="false" />
    <sodipodi:guide
       position="0.0042008831,59.786264"
       orientation="1,0"
       id="guide1234"
       inkscape:locked="false" />
    <sodipodi:guide
       position="159.3262,18.91376"
       orientation="1,0"
       id="guide1236"
       inkscape:locked="false" />
    <sodipodi:guide
       position="149.99077,0.0041951085"
       orientation="0,1"
       id="guide1238"
       inkscape:locked="false" />
    <sodipodi:guide
       position="50.451284,59.786264"
       orientation="0,1"
       id="guide1240"
       inkscape:locked="false" />
    <sodipodi:guide
       position="0.0042008831,50.451278"
       orientation="0,1"
       id="guide1242"
       inkscape:locked="false" />
    <sodipodi:guide
       position="149.99122,50.488058"
       orientation="1,0"
       id="guide1244"
       inkscape:locked="false" />
    <sodipodi:guide
       position="77.735344,76.808671"
       orientation="0,1"
       id="guide872"
       inkscape:locked="false" />
    <sodipodi:guide
       position="81.174942,132.9688"
       orientation="0,1"
       id="guide879"
       inkscape:locked="false" />
  </sodipodi:namedview>
  <metadata
     id="metadata5">
    <rdf:RDF>
      <cc:Work
         rdf:about="">
        <dc:format>image/svg+xml</dc:format>
        <dc:type
           rdf:resource="http://purl.org/dc/dcmitype/StillImage" />
        <dc:title />
      </cc:Work>
    </rdf:RDF>
  </metadata>
  <g
     inkscape:label="Layer 1"
     inkscape:groupmode="layer"
     id="layer1"
     transform="translate(-0.14236423,-0.1162505)">
    <g
       id="g921"
       inkscape:label="Geometry"
       transform="matrix(2.9365145,0,0,2.9365145,-7.6359436,-9.596843)">
      <path
         style="fill:#edbe3b;fill-opacity:1;fill-rule:evenodd;stroke:none;stroke-width:0.30825421"
         d="m 2.6502539,66.38142 -1.5e-6,-8.816817 H 53.726798 V 74.743841 H 11.191313 c -5.4361075,0 -8.6198976,-4.831578 -8.5410591,-8.362421 z"
         id="path911"
         inkscape:connector-curvature="0"
         sodipodi:nodetypes="cccccc"
         inkscape:label="Bottom" />
      <path
         inkscape:label="Left"
         sodipodi:nodetypes="cccccc"
         inkscape:connector-curvature="0"
         id="path857"
         d="m 11.012675,3.3091253 8.816817,-1.5e-6 V 54.385669 H 2.6502538 V 11.850184 c 0,-5.4361071 4.831578,-8.6198972 8.3624212,-8.5410587 z"
         style="fill:#94a60a;fill-opacity:1;fill-rule:evenodd;stroke:none;stroke-width:0.30825421" />
      <path
         style="fill:#088c37;fill-opacity:1;fill-rule:evenodd;stroke:none;stroke-width:0.30825421"
         d="m 74.083806,11.671547 2e-6,8.816817 H 23.007263 V 3.3091259 h 42.535485 c 5.436107,0 8.619897,4.831578 8.541058,8.3624211 z"
         id="path859"
         inkscape:connector-curvature="0"
         sodipodi:nodetypes="cccccc"
         inkscape:label="Top" />
      <path
         inkscape:label="Right"
         sodipodi:nodetypes="cccccc"
         inkscape:connector-curvature="0"
         id="path861"
         d="m 65.722547,74.743839 -8.816817,2e-6 V 23.667296 h 17.179238 v 42.535485 c 0,5.436107 -4.831578,8.619897 -8.362421,8.541058 z"
         style="fill:#bf3c30;fill-opacity:1;fill-rule:evenodd;stroke:none;stroke-width:0.30825421" />
    </g>
  </g>
  <g
     aria-label="Б"
     transform="matrix(2.5818914,0,0,2.3425243,-533.95781,-482.10851)"
     style="font-style:normal;font-weight:normal;font-size:40px;line-height:1.25;font-family:sans-serif;letter-spacing:0px;word-spacing:0px;fill:#000000;fill-opacity:1;stroke:none"
     id="flowRoot853"
     inkscape:label="Letters">
    <path
       d="m 232.04484,262.57022 q -0.88,0 -1.48,-0.6 -0.6,-0.6 -0.6,-1.48 v -27.08 q 0,-0.92 0.6,-1.48 0.6,-0.6 1.48,-0.6 h 16.96 q 0.8,0 1.32,0.56 0.56,0.52 0.56,1.4 0,0.8 -0.56,1.36 -0.52,0.52 -1.32,0.52 h -14.88 v 9 h 9.12 q 3,0 5.32,1.16 2.32,1.12 3.6,3.16 1.32,2 1.32,4.64 0,2.76 -1.32,4.88 -1.28,2.12 -3.6,3.36 -2.32,1.2 -5.32,1.2 z m 2.08,-3.84 h 9.12 q 1.84,0 3.24,-0.64 1.4,-0.64 2.2,-1.88 0.8,-1.24 0.8,-3.08 0,-1.84 -0.8,-3 -0.8,-1.2 -2.2,-1.76 -1.4,-0.6 -3.24,-0.6 h -9.12 z"
       style="font-style:normal;font-variant:normal;font-weight:bold;font-stretch:normal;font-family:Comfortaa;-inkscape-font-specification:'Comfortaa Bold';fill:#2b9ecf;fill-opacity:1;stroke:#e6e6e6;stroke-width:0.99987912;stroke-miterlimit:4;stroke-dasharray:none;stroke-opacity:1;paint-order:markers stroke fill"
       id="path865"
       inkscape:connector-curvature="0"
       inkscape:label="Б" />
    <g
       aria-label="Л"
       style="font-style:normal;font-weight:normal;font-size:40.00035477px;line-height:1.25;font-family:sans-serif;letter-spacing:0px;word-spacing:0px;fill:#2b9ecf;fill-opacity:1;stroke:#e6e6e6;stroke-width:0.99987912;stroke-miterlimit:4;stroke-dasharray:none;stroke-opacity:1;paint-order:markers stroke fill"
       id="text863">
      <path
         d="m 240.10817,269.83603 q -1.12001,0 -1.72002,-0.96001 -0.6,-0.96001 -0.12,-2.04002 l 11.2401,-26.84024 q 0.60001,-1.40001 1.96002,-1.40001 1.44001,0 1.96002,1.40001 l 11.2801,26.92024 q 0.44,1.12001 -0.12,2.04002 -0.52001,0.88001 -1.68002,0.88001 -0.60001,0 -1.16001,-0.32 -0.52,-0.36001 -0.76001,-0.96001 L 250.98826,243.9158 h 1.28002 l -10.2401,24.64022 q -0.28,0.64 -0.84,0.96001 -0.52001,0.32 -1.08001,0.32 z"
         style="font-style:normal;font-variant:normal;font-weight:bold;font-stretch:normal;font-family:Comfortaa;-inkscape-font-specification:'Comfortaa Bold';fill:#2b9ecf;fill-opacity:1;stroke:#e6e6e6;stroke-width:0.99987912;stroke-miterlimit:4;stroke-dasharray:none;stroke-opacity:1;paint-order:markers stroke fill"
         id="path2369"
         inkscape:connector-curvature="0" />
    </g>
  </g>
</svg>
